<?xml version="1.0" standalone="no"?>
<!DOCTYPE svg PUBLIC "-//W3C//DTD SVG 20010904//EN"
 "http://www.w3.org/TR/2001/REC-SVG-20010904/DTD/svg10.dtd">
<svg version="1.0" xmlns="http://www.w3.org/2000/svg"
 width="669.000000pt" height="373.000000pt" viewBox="0 0 669.000000 373.000000"
 preserveAspectRatio="xMidYMid meet">

<g transform="translate(0.000000,373.000000) scale(0.100000,-0.100000)"
fill="#000000" stroke="none">
<path d="M1355 3230 c-463 -59 -862 -340 -1073 -755 -53 -104 -77 -169 -107
-285 -202 -786 298 -1570 1101 -1726 122 -24 368 -24 487 -1 339 67 654 265
864 545 115 152 202 341 245 532 31 139 33 436 5 570 -119 564 -538 988 -1089
1100 -115 24 -327 33 -433 20z m369 -75 c264 -46 510 -172 701 -360 146 -143
229 -270 309 -468 64 -159 81 -264 81 -492 -1 -182 -3 -209 -27 -305 -32 -126
-66 -220 -80 -220 -6 0 -7 7 -3 18 61 145 85 266 92 457 8 242 -24 411 -118
614 -301 651 -1084 929 -1724 612 -271 -134 -469 -337 -600 -615 -89 -187
-124 -348 -125 -562 0 -152 21 -275 72 -432 22 -67 38 -125 35 -128 -7 -8 -66
147 -88 235 -44 172 -50 444 -14 611 62 284 222 554 435 733 193 163 397 259
640 302 104 18 310 18 414 0z m-156 -142 c3 14 13 6 45 -33 22 -27 46 -50 53
-50 8 0 11 -6 7 -15 -5 -14 -8 -14 -29 0 -13 8 -31 15 -40 15 -15 0 -14 -4 6
-25 12 -13 28 -22 34 -19 6 3 2 -2 -9 -11 -16 -13 -21 -14 -23 -2 -2 8 -15 20
-30 28 -15 8 -32 20 -38 28 -16 20 -44 6 -44 -23 0 -26 28 -49 72 -59 15 -4
33 -14 42 -22 15 -16 46 -19 84 -9 28 8 28 21 1 29 -11 4 -19 9 -16 11 9 9 57
-16 57 -29 0 -26 -54 -41 -166 -45 -130 -5 -228 15 -222 46 2 10 14 18 28 19
15 1 18 0 8 -3 -40 -12 -5 -34 54 -34 33 0 42 21 15 35 -29 14 -40 62 -20 91
8 13 11 24 7 24 -16 1 61 39 79 40 17 0 17 1 0 28 -17 27 -17 27 12 -3 25 -26
30 -27 33 -12z m-208 -82 c0 -5 -3 -17 -6 -25 -5 -13 -10 -14 -20 -6 -7 7 -10
18 -7 26 6 15 33 20 33 5z m400 -17 c0 -8 -5 -12 -10 -9 -6 4 -8 11 -5 16 9
14 15 11 15 -7z m219 -116 c-5 -19 -5 -45 0 -65 5 -18 6 -33 1 -33 -15 0 -22
19 -22 65 0 46 7 65 22 65 5 0 5 -14 -1 -32z m83 -33 c0 -22 -7 -44 -17 -54
-15 -15 -16 -14 -9 14 4 17 8 31 9 33 2 2 -1 19 -5 39 -8 32 -7 34 7 21 8 -9
15 -32 15 -53z m-872 0 c0 -30 -22 -49 -38 -33 -27 27 -3 90 25 67 7 -7 13
-22 13 -34z m-180 0 c0 -19 -4 -35 -9 -35 -5 0 -11 16 -13 35 -3 24 0 35 9 35
8 0 13 -13 13 -35z m65 0 c0 -23 -5 -31 -22 -33 -20 -3 -23 1 -23 33 0 32 3
36 23 33 17 -2 22 -10 22 -33z m45 0 c0 -19 -2 -35 -4 -35 -2 0 -6 16 -8 35
-2 19 0 35 4 35 4 0 8 -16 8 -35z m110 -6 c0 -25 -4 -38 -11 -34 -5 4 -8 12
-6 18 2 7 0 22 -4 35 -6 16 -5 22 6 22 11 0 15 -11 15 -41z m627 2 c30 -16 52
-69 55 -137 l3 -59 55 -36 c30 -20 81 -64 113 -98 31 -33 59 -61 61 -61 3 0 7
13 11 29 7 33 39 71 60 71 18 0 301 -77 333 -90 31 -13 28 -42 -13 -150 -19
-50 -35 -96 -35 -101 0 -6 10 -23 21 -38 18 -25 21 -40 17 -103 -2 -42 -13
-96 -25 -128 -12 -30 -29 -75 -37 -100 -23 -64 -83 -139 -140 -175 -45 -27
-57 -30 -138 -30 -98 0 -119 -16 -46 -35 44 -13 68 -8 173 30 66 24 122 22
178 -6 44 -22 43 -21 18 -48 -18 -19 -20 -27 -11 -50 5 -15 10 -35 9 -44 0 -9
-7 3 -14 28 -12 39 -12 48 0 67 20 30 20 31 -22 42 -61 17 -118 13 -189 -14
-72 -27 -151 -33 -176 -12 -9 6 -19 25 -22 41 -6 26 -5 28 16 22 52 -15 115
-17 155 -7 82 22 173 123 207 231 8 25 21 64 30 87 8 22 16 71 18 107 2 57 -1
69 -21 90 l-23 25 40 118 c39 111 40 119 23 133 -9 8 -88 33 -175 55 -183 46
-168 51 -210 -69 -13 -39 -49 -142 -79 -230 -31 -87 -53 -165 -50 -172 3 -8
44 -26 92 -40 47 -15 119 -37 159 -50 40 -13 80 -21 90 -18 10 3 8 0 -4 -7
-18 -9 -50 -2 -185 43 -141 45 -164 56 -167 75 -2 12 13 68 32 124 40 113 43
135 22 164 -7 11 -16 39 -19 63 -6 47 -26 76 -69 98 -16 8 -31 28 -38 51 -14
44 -45 98 -72 129 -16 18 -17 23 -4 33 38 32 23 116 -26 142 -49 27 -109 4
-122 -45 -5 -22 -7 -22 -63 -10 -32 6 -71 17 -86 23 -43 17 -90 14 -83 -4 3
-10 -1 -15 -13 -15 -32 0 -50 -11 -44 -26 9 -23 -22 -16 -47 11 -30 31 -61 32
-97 1 -22 -19 -28 -33 -28 -64 0 -24 7 -48 18 -59 10 -11 13 -23 8 -29 -5 -5
-23 -45 -41 -89 -27 -69 -31 -88 -26 -135 8 -66 8 -70 -2 -141 -6 -47 -13 -61
-40 -84 -19 -16 -65 -65 -102 -111 -86 -101 -121 -126 -170 -114 -32 7 -33 8
-7 9 15 1 42 9 60 19 32 17 32 17 -113 22 l-145 6 155 2 155 2 45 61 c25 34
66 80 91 103 40 36 48 49 53 91 3 28 5 59 5 70 -1 11 -2 55 -3 97 l-1 77 -57
6 c-31 4 -62 4 -67 0 -6 -3 -11 -4 -11 -1 0 10 79 79 124 108 35 24 41 32 41
65 1 51 6 62 37 97 24 26 36 31 93 36 36 3 72 2 80 -3 10 -5 15 -3 15 7 0 22
45 31 88 18 28 -9 38 -9 44 1 6 9 8 9 8 0 0 -8 15 -13 39 -13 22 0 41 -5 43
-11 2 -7 17 0 35 15 54 45 90 50 150 17z m-78 -24 c-2 -1 -13 -9 -24 -17 -19
-14 -19 -14 -6 3 7 9 18 17 24 17 6 0 8 -1 6 -3z m-194 -45 c17 -6 56 -16 88
-22 87 -17 172 -85 214 -170 18 -36 35 -78 38 -95 4 -22 3 -25 -3 -10 -7 15
-10 4 -14 -41 -9 -99 -51 -155 -162 -223 -88 -53 -130 -64 -221 -58 -91 5
-141 26 -206 84 -85 77 -102 168 -54 292 43 112 132 201 204 201 l36 1 -25 14
c-25 14 -25 14 14 15 35 0 37 2 25 17 -13 14 -11 16 11 11 14 -3 39 -11 55
-16z m-409 -33 c10 -17 -13 -36 -27 -22 -12 12 -4 33 11 33 5 0 12 -5 16 -11z
m-161 -94 c-18 -54 -35 -81 -35 -52 0 8 6 30 14 48 7 19 16 43 20 53 3 10 9
16 12 13 4 -3 -2 -31 -11 -62z m1033 -4 c-15 -21 -15 -21 -28 5 -12 22 -12 27
0 34 10 6 20 5 29 -4 11 -12 11 -17 -1 -35z m-964 29 c35 -13 33 -36 -4 -55
-26 -13 -30 -14 -30 -1 0 8 10 18 23 22 l22 7 -22 10 c-13 6 -23 14 -23 19 0
10 3 10 34 -2z m1096 -68 c0 -4 -9 -8 -20 -9 -11 -1 -20 2 -20 8 0 5 9 9 20 9
11 0 20 -4 20 -8z m-1180 -92 c0 -6 -58 -9 -157 -8 l-158 2 140 6 c77 3 148 7
158 8 9 1 17 -2 17 -8z m1383 -46 c113 -31 137 -41 137 -56 0 -10 -13 -53 -30
-96 -16 -42 -34 -90 -40 -106 -6 -16 -13 -27 -15 -24 -3 3 13 53 35 113 23 59
37 111 33 115 -14 13 -141 40 -157 34 -9 -3 -23 1 -32 11 -15 14 -18 14 -33 0
-10 -8 -22 -15 -27 -15 -5 0 -2 5 6 10 8 5 10 10 4 10 -5 0 -20 -9 -31 -19
-12 -11 -23 -18 -26 -15 -3 4 -54 -129 -118 -309 -17 -47 -20 -45 125 -87 61
-19 116 -38 121 -43 12 -12 -7 -6 -152 40 -87 27 -113 39 -113 53 0 9 20 77
46 151 89 264 96 280 113 275 9 -3 78 -22 154 -42z m-1753 6 c0 -5 -4 -10 -10
-10 -5 0 -10 5 -10 10 0 6 5 10 10 10 6 0 10 -4 10 -10z m50 0 c0 -5 -4 -10
-10 -10 -5 0 -10 5 -10 10 0 6 5 10 10 10 6 0 10 -4 10 -10z m1322 -38 c38
-32 33 -75 -16 -157 -17 -28 -16 -27 18 7 33 35 36 36 46 18 5 -10 10 -28 10
-39 0 -16 -6 -21 -28 -21 -17 0 -71 -26 -136 -65 -109 -65 -220 -115 -259
-118 -12 0 -37 -14 -56 -30 -28 -24 -30 -28 -12 -22 19 6 22 4 18 -12 -20 -70
-18 -193 3 -193 10 0 15 26 27 144 l8 79 90 36 c50 20 108 47 130 60 120 72
178 102 193 99 12 -3 5 -10 -21 -22 -106 -52 -154 -226 -95 -345 l24 -49 -26
17 -25 16 25 -31 c14 -17 53 -51 87 -75 82 -57 80 -70 -17 -120 -88 -45 -100
-47 -100 -16 0 16 -9 28 -25 35 -13 6 -44 36 -67 67 -24 30 -45 50 -46 44 -6
-16 44 -85 83 -114 68 -52 41 -75 -113 -94 -70 -9 -88 -7 -53 4 21 6 39 50 27
62 -4 4 -57 14 -119 23 l-112 16 1 39 c2 62 26 205 36 211 4 3 8 24 8 48 0 73
51 123 215 212 164 89 249 166 260 235 4 26 3 29 -4 14 -5 -11 -10 -15 -10 -9
-1 6 -4 26 -8 44 -7 35 0 35 39 2z m-1201 -71 c4 7 11 10 16 6 9 -9 -17 -28
-29 -21 -4 3 -8 11 -7 17 0 8 3 7 6 -2 4 -11 7 -11 14 0z m76 -13 c-3 -8 -6
-5 -6 6 -1 11 2 17 5 13 3 -3 4 -12 1 -19z m38 12 c3 -5 2 -10 -4 -10 -5 0
-13 5 -16 10 -3 6 -2 10 4 10 5 0 13 -4 16 -10z m1430 -20 c3 -5 -1 -10 -10
-10 -9 0 -13 5 -10 10 3 6 8 10 10 10 2 0 7 -4 10 -10z m-76 -36 c9 -8 -31
-35 -46 -30 -13 5 -14 4 -4 -8 10 -12 9 -13 -8 -9 -25 6 -27 26 -5 48 14 13
47 13 63 -1z m-1003 -56 c9 -18 52 -70 96 -116 43 -45 83 -94 88 -108 10 -27
3 -131 -22 -297 l-12 -87 -51 6 c-28 4 -56 13 -63 22 -7 9 -24 52 -37 95 -14
43 -31 90 -39 105 -13 25 -12 34 5 82 23 67 23 69 4 44 -18 -23 -18 -22 -4 52
17 99 17 99 43 71 13 -14 42 -37 65 -53 42 -27 43 -29 37 -69 -15 -89 -19
-175 -8 -175 11 0 42 121 42 166 0 19 4 25 15 20 8 -3 15 -3 15 0 0 7 -43 68
-55 76 -16 12 -27 9 -19 -4 8 -14 -21 9 -74 57 -51 46 -79 115 -55 138 10 11
11 9 29 -25z m1118 26 c10 -4 16 -18 16 -40 0 -44 -34 -69 -74 -54 -15 5 -35
10 -44 9 -10 0 -6 -5 10 -11 24 -8 26 -13 18 -29 -13 -24 -51 -24 -80 -1 -21
17 -22 21 -11 55 16 46 22 50 67 38 41 -11 74 0 74 24 0 17 2 17 24 9z m-1564
-49 c11 -13 10 -14 -4 -9 -9 3 -16 10 -16 15 0 13 6 11 20 -6z m170 4 c0 -8 6
-7 18 2 15 13 16 12 4 -3 -7 -9 -21 -15 -30 -13 -9 2 -20 4 -24 4 -18 2 -6 21
12 21 11 0 20 -5 20 -11z m-520 -13 c0 -8 -5 -18 -11 -22 -14 -8 -33 11 -25
25 10 16 36 13 36 -3z m717 -87 c-26 -22 -46 -44 -44 -47 1 -4 -26 -36 -60
-72 -35 -35 -63 -68 -63 -72 0 -4 -7 -8 -16 -8 -10 0 3 22 38 62 86 100 164
178 178 178 7 0 -8 -18 -33 -41z m1263 24 c-14 -3 -28 -10 -32 -17 -5 -7 -8
-7 -8 0 0 17 12 24 39 23 l26 -2 -25 -4z m-1597 -44 c-8 -29 -13 -23 -13 14 0
22 3 28 9 18 5 -7 6 -22 4 -32z m-26 -16 c-3 -10 -5 -2 -5 17 0 19 2 27 5 18
2 -10 2 -26 0 -35z m-137 16 c0 -12 -8 -23 -20 -26 -11 -3 -20 -10 -20 -15 0
-5 6 -6 13 -2 9 5 9 4 0 -6 -16 -17 -43 -5 -43 20 0 13 7 20 20 20 11 0 23 7
26 15 9 22 24 18 24 -6z m67 5 c3 -9 -3 -23 -16 -35 l-21 -20 0 29 c0 42 24
59 37 26z m33 -24 c5 0 11 10 13 23 3 16 5 14 6 -10 0 -17 -4 -35 -11 -39 -7
-4 -8 -3 -4 4 4 7 1 12 -8 12 -11 0 -16 9 -15 28 2 23 2 24 6 5 2 -13 8 -23
13 -23z m137 24 c8 -21 -13 -42 -28 -27 -13 13 -5 43 11 43 6 0 13 -7 17 -16z
m20 -21 c-3 -10 -5 -4 -5 12 0 17 2 24 5 18 2 -7 2 -21 0 -30z m1466 -13 c-13
-5 -23 -17 -24 -27 0 -11 -3 -13 -6 -5 -7 17 15 42 36 41 11 0 9 -3 -6 -9z
m-20 -77 c-7 -2 -13 -12 -13 -20 0 -9 -3 -14 -6 -10 -10 10 4 37 18 36 10 0
10 -2 1 -6z m-183 -13 c0 -5 -4 -10 -10 -10 -5 0 -10 5 -10 10 0 6 5 10 10 10
6 0 10 -4 10 -10z m-1365 -70 c99 -11 216 -25 259 -30 44 -6 83 -10 87 -10 8
0 35 -68 74 -185 13 -38 26 -79 31 -90 5 -14 4 -17 -4 -10 -5 6 -24 48 -40 95
-52 148 -63 170 -86 175 -43 8 -153 24 -216 30 -36 3 -123 13 -194 21 -98 12
-130 13 -136 4 -5 -8 -9 -8 -13 3 -8 21 1 27 32 22 14 -3 107 -14 206 -25z
m-205 -55 c0 -5 -5 -3 -10 5 -5 8 -10 20 -10 25 0 6 5 3 10 -5 5 -8 10 -19 10
-25z m1784 -37 c-9 -18 -26 -46 -38 -61 -21 -29 -101 -87 -120 -87 -5 0 11 13
37 30 43 27 126 133 128 164 0 7 2 7 5 -1 3 -6 -3 -27 -12 -45z m-957 0 c-3
-8 -6 -5 -6 6 -1 11 2 17 5 13 3 -3 4 -12 1 -19z m-10 -70 c-3 -7 -5 -2 -5 12
0 14 2 19 5 13 2 -7 2 -19 0 -25z m-814 -35 c-14 -22 -14 -29 1 -75 9 -29 28
-66 41 -84 25 -32 100 -74 133 -74 12 0 10 -4 -7 -16 -13 -9 -30 -32 -38 -51
-8 -20 -17 -33 -20 -30 -3 4 4 24 15 45 l20 40 -38 17 c-21 10 -50 29 -64 44
-30 32 -66 113 -66 150 0 34 22 83 32 69 3 -6 -1 -22 -9 -35z m412 -24 c18
-34 19 -59 3 -60 -7 -1 -31 -2 -53 -1 -26 0 -31 -2 -15 -5 24 -5 40 -19 40
-35 0 -5 -15 -8 -33 -8 -40 0 -67 26 -70 66 -2 28 -1 29 41 26 41 -3 42 -3 42
27 0 38 23 33 45 -10z m392 -26 c-3 -10 -5 -4 -5 12 0 17 2 24 5 18 2 -7 2
-21 0 -30z m-537 21 c0 -8 -19 -13 -24 -6 -3 5 1 9 9 9 8 0 15 -2 15 -3z m478
-69 c2 -1 -11 -5 -28 -7 -19 -3 -35 1 -42 10 -10 11 -6 13 28 6 21 -3 40 -8
42 -9z m187 -31 c76 -10 72 -13 -132 -105 -35 -16 -63 -25 -63 -20 0 4 34 22
75 41 42 18 73 35 70 38 -3 3 -40 11 -83 18 -42 6 -63 12 -47 13 17 1 41 8 55
16 14 8 38 12 55 9 17 -3 48 -8 70 -10z m881 6 c41 -16 17 -32 -27 -19 -29 9
-49 7 -110 -10 -108 -30 -119 -25 -19 9 94 32 116 35 156 20z m-1099 -16 c-3
-3 -12 -4 -19 -1 -8 3 -5 6 6 6 11 1 17 -2 13 -5z m1142 -141 c14 -15 17 -20
6 -10 -35 28 -92 47 -142 46 l-48 -1 32 -14 c17 -7 35 -18 38 -25 4 -6 -5 -4
-21 4 -16 8 -48 18 -72 22 -56 9 -47 16 30 24 78 9 142 -8 177 -46z m-364 23
c24 -16 60 -76 46 -76 -6 0 -17 13 -25 29 -8 15 -34 38 -58 50 -36 18 -38 21
-13 16 17 -4 39 -12 50 -19z m-1301 -33 c-32 -48 -34 -49 -34 -31 0 18 37 68
50 68 5 0 -2 -17 -16 -37z m-445 -158 c19 -35 32 -67 29 -70 -3 -3 -20 23 -39
57 -43 79 -42 78 -32 78 4 0 23 -29 42 -65z m2301 55 c0 -5 -4 -10 -10 -10 -5
0 -10 5 -10 10 0 6 5 10 10 10 6 0 10 -4 10 -10z m-1877 -17 c-4 -17 7 -16 31
2 26 20 97 19 141 -2 96 -46 99 -217 4 -265 -42 -22 -117 -23 -147 -2 l-22 15
0 -65 0 -66 -45 0 -45 0 0 201 0 200 43 -3 c27 -2 41 -7 40 -15z m536 -1 c50
-25 74 -63 78 -124 7 -95 -55 -158 -155 -158 -107 0 -167 54 -166 150 0 65 21
102 73 130 46 24 125 26 170 2z m1315 -34 c-23 -44 -56 -91 -72 -101 -7 -5
-11 -11 -8 -15 2 -4 -2 -13 -10 -20 -8 -7 -14 -10 -14 -6 0 7 72 119 90 142 6
6 7 12 3 12 -7 0 17 19 25 20 1 0 -5 -15 -14 -32z m-2229 -88 c-3 -5 -2 -10 2
-10 5 0 24 -21 42 -47 23 -35 25 -40 6 -18 -14 17 -35 40 -45 51 -11 12 -17
24 -13 28 10 9 15 7 8 -4z m2114 -81 c-8 -4 -14 -14 -14 -20 0 -6 -11 -18 -25
-26 l-25 -15 23 20 c13 12 23 25 24 29 2 20 11 32 20 27 6 -4 5 -10 -3 -15z
m-1492 -261 c-3 -7 -5 -2 -5 12 0 14 2 19 5 13 2 -7 2 -19 0 -25z m53 9 c0
-16 -3 -17 -14 -8 -11 10 -15 8 -19 -6 -3 -12 -5 -9 -6 9 -1 21 3 26 19 25 12
-1 20 -8 20 -20z m25 13 c-11 -17 5 -32 21 -19 9 7 14 8 14 1 0 -19 -22 -25
-37 -9 -13 13 -11 37 3 37 3 0 2 -4 -1 -10z m52 -27 c-3 -10 -5 -4 -5 12 0 17
2 24 5 18 2 -7 2 -21 0 -30z m59 26 c4 -8 9 -7 15 2 6 10 9 8 9 -8 0 -25 -14
-30 -26 -11 -5 8 -10 6 -15 -8 -6 -16 -8 -15 -8 9 -1 27 12 36 25 16z m41 -21
c-3 -7 -5 -2 -5 12 0 14 2 19 5 13 2 -7 2 -19 0 -25z m20 -5 c-3 -10 -5 -4 -5
12 0 17 2 24 5 18 2 -7 2 -21 0 -30z m73 19 c0 -11 -8 -18 -20 -19 -14 -1 -20
4 -20 18 0 12 7 19 20 19 13 0 20 -7 20 -18z m26 6 c0 -7 4 -13 9 -13 6 0 9 6
9 13 -1 6 2 12 7 12 14 0 10 -37 -4 -43 -20 -8 -41 9 -34 27 8 19 15 21 13 4z
m71 -25 c-3 -10 -5 -4 -5 12 0 17 2 24 5 18 2 -7 2 -21 0 -30z m33 17 c0 -11
-4 -20 -8 -20 -4 0 -8 9 -8 20 0 11 4 20 8 20 4 0 8 -9 8 -20z m30 0 c0 -11
-4 -20 -10 -20 -5 0 -10 9 -10 20 0 11 5 20 10 20 6 0 10 -9 10 -20z m76 -2
c-1 -26 -18 -27 -22 -2 -2 12 2 21 10 21 7 0 13 -9 12 -19z m21 -15 c-3 -10
-5 -4 -5 12 0 17 2 24 5 18 2 -7 2 -21 0 -30z m53 5 c0 -14 -22 -20 -33 -8 -9
10 -9 11 1 6 6 -4 12 -2 12 3 0 6 -4 11 -10 11 -5 0 -10 5 -10 10 0 6 8 5 20
-2 11 -7 20 -16 20 -20z m30 12 c0 -11 -2 -20 -4 -20 -2 0 -6 9 -9 20 -3 11
-1 20 4 20 5 0 9 -9 9 -20z m27 -12 c-3 -7 -5 -2 -5 12 0 14 2 19 5 13 2 -7 2
-19 0 -25z m73 -1 c0 -2 -7 -4 -15 -4 -8 0 -15 9 -15 19 0 17 2 18 15 4 8 -8
15 -16 15 -19z m20 11 c0 -19 -2 -20 -10 -8 -13 19 -13 30 0 30 6 0 10 -10 10
-22z m44 6 c3 -9 6 -17 6 -18 0 -1 -9 -2 -20 -2 -11 0 -20 1 -20 2 0 11 14 34
20 34 4 0 11 -7 14 -16z m86 -21 c-11 -17 -11 -17 -6 0 3 10 6 24 7 30 0 9 2
9 5 0 3 -7 0 -20 -6 -30z m-30 8 c0 -14 -29 -21 -36 -9 -4 7 -3 8 4 4 7 -4 12
-2 12 3 0 6 5 11 10 11 6 0 10 -4 10 -9z m-1003 -83 c-3 -7 -5 -2 -5 12 0 14
2 19 5 13 2 -7 2 -19 0 -25z m73 8 c0 -15 -3 -17 -12 -8 -8 8 -15 9 -25 1 -10
-9 -13 -7 -13 7 0 14 7 19 25 19 18 0 25 -5 25 -19z m33 5 c-4 -3 -11 -10 -15
-15 -5 -5 -8 0 -8 12 0 15 4 20 16 15 9 -3 12 -9 7 -12z m53 -1 c0 -11 -4 -20
-8 -20 -4 0 -8 9 -8 20 0 11 4 20 8 20 4 0 8 -9 8 -20z m28 -10 c-6 -6 -10 -3
-10 10 0 13 4 16 10 10 7 -7 7 -13 0 -20z m37 10 c6 0 7 5 4 10 -3 6 -1 10 4
10 21 0 6 -33 -16 -37 -8 -2 -13 7 -12 20 0 12 3 16 6 10 2 -7 9 -13 14 -13z
m59 9 c0 -8 5 -8 15 1 12 10 15 9 15 -5 0 -11 5 -15 15 -11 8 3 15 1 15 -4 0
-5 -16 -9 -35 -8 -24 1 -35 6 -36 17 -1 13 -2 13 -6 -1 -2 -10 -9 -18 -14 -18
-6 0 -5 8 1 20 12 22 30 27 30 9z m86 -9 c0 -11 -4 -20 -8 -20 -4 0 -8 9 -8
20 0 11 4 20 8 20 4 0 8 -9 8 -20z m28 -10 c-6 -6 -10 -3 -10 10 0 13 4 16 10
10 7 -7 7 -13 0 -20z m49 22 c3 7 6 3 6 -9 1 -16 -4 -21 -19 -20 -12 1 -20 8
-20 20 0 16 3 17 14 8 11 -9 15 -9 19 1z m63 -1 c16 13 18 1 4 -21 -9 -13 -11
-13 -20 0 -5 8 -9 20 -9 25 0 6 3 4 6 -3 4 -10 8 -10 19 -1z m37 -11 c-5 -19
-23 -29 -23 -12 0 7 20 32 26 32 1 0 0 -9 -3 -20z m50 0 c3 -11 1 -20 -4 -20
-5 0 -10 8 -10 18 -1 16 -2 16 -6 0 -2 -10 -9 -18 -14 -18 -6 0 -5 8 1 20 6
11 15 20 19 20 5 0 11 -9 14 -20z m38 0 c6 0 7 5 4 10 -3 6 -1 10 4 10 21 0 6
-33 -16 -37 -8 -2 -13 7 -12 20 0 12 3 16 6 10 2 -7 9 -13 14 -13z m50 0 c6 0
7 5 4 10 -3 6 -1 10 4 10 21 0 6 -33 -16 -37 -8 -2 -13 7 -12 20 0 12 3 16 6
10 2 -7 9 -13 14 -13z m65 -1 c0 -10 -4 -19 -8 -19 -4 0 -8 6 -8 13 0 8 -4 7
-10 -3 -8 -12 -10 -11 -10 5 0 13 7 21 18 22 11 1 18 -5 18 -18z m54 8 c0 -7
4 -6 10 3 11 18 23 9 15 -12 -8 -20 -61 -19 -61 2 0 9 8 17 18 17 10 1 18 -4
18 -10z m66 1 c0 -7 4 -13 9 -13 6 0 9 6 9 13 -1 6 2 12 7 12 15 0 10 -37 -5
-43 -17 -7 -40 18 -31 33 8 14 13 13 11 -2z m67 -9 c5 -3 2 -9 -7 -12 -12 -5
-16 0 -16 15 0 12 3 17 8 12 4 -5 11 -12 15 -15z m53 4 c0 -10 5 -17 12 -15 8
1 11 -2 7 -7 -7 -13 -35 -2 -35 13 0 11 9 26 16 26 1 0 1 -8 0 -17z m50 5 c0
-7 4 -13 9 -13 6 0 9 6 9 13 -1 6 2 12 7 12 14 0 11 -26 -4 -39 -10 -8 -17 -7
-25 1 -14 14 -16 38 -3 38 5 0 8 -6 7 -12z m51 -20 c-3 -7 -5 -2 -5 12 0 14 2
19 5 13 2 -7 2 -19 0 -25z m33 12 c0 -11 -4 -20 -9 -20 -5 0 -7 9 -4 20 3 11
7 20 9 20 2 0 4 -9 4 -20z m33 14 c8 -8 -3 -34 -14 -34 -5 0 -9 9 -9 20 0 19
11 26 23 14z"/>
<path d="M1600 2960 c0 -5 5 -10 11 -10 5 0 7 5 4 10 -3 6 -8 10 -11 10 -2 0
-4 -4 -4 -10z"/>
<path d="M1156 2774 c-4 -10 -2 -22 3 -27 7 -7 13 -5 17 7 4 10 2 22 -3 27 -7
7 -13 5 -17 -7z"/>
<path d="M1040 2765 c0 -17 5 -25 13 -22 6 2 12 12 12 22 0 10 -6 20 -12 23
-8 2 -13 -6 -13 -23z"/>
<path d="M1945 2513 c11 -11 23 -19 27 -17 3 2 9 -9 13 -26 4 -16 11 -30 16
-30 6 0 7 -4 4 -10 -3 -5 -1 -10 5 -10 6 0 9 -3 7 -7 -4 -9 29 -44 35 -37 2 2
15 -14 28 -35 21 -32 27 -36 38 -24 17 17 9 50 -21 83 -31 35 -117 104 -147
120 l-25 13 20 -20z"/>
<path d="M1140 2470 l-35 -29 28 2 c15 1 27 7 27 15 0 8 5 10 13 6 6 -4 9 -4
5 1 -4 4 -3 14 3 22 21 24 -6 14 -41 -17z"/>
<path d="M1634 2543 c-37 -7 -67 -48 -67 -90 l0 -39 -53 0 c-49 -1 -53 1 -59
25 -21 86 -116 79 -147 -10 -5 -16 -14 -29 -19 -29 -12 0 -1 -48 17 -77 10
-17 24 -23 48 -23 33 0 53 15 109 79 27 32 80 28 109 -8 21 -27 31 -31 99 -37
70 -6 78 -5 98 15 36 36 26 96 -25 149 -23 23 -46 42 -52 42 -6 0 -16 2 -24 4
-7 2 -23 1 -34 -1z m51 -84 c10 -16 -4 -24 -17 -11 -16 16 -31 15 -22 0 4 -7
4 -10 -1 -6 -4 4 -14 3 -22 -3 -16 -14 -17 3 -1 19 15 15 55 16 63 1z m-290
-35 c-9 -9 -18 -14 -21 -11 -9 9 6 27 22 27 13 0 13 -2 -1 -16z m321 -16 c4
-7 3 -8 -5 -4 -6 4 -18 3 -26 -4 -17 -14 -67 -9 -73 8 -5 16 94 17 104 0z
m-82 -48 l21 -9 -22 0 c-21 -1 -53 32 -53 53 0 6 7 0 16 -12 9 -13 26 -27 38
-32z m-206 31 c21 -13 -13 -35 -42 -27 -16 4 -26 1 -30 -9 -4 -10 1 -15 17
-16 12 0 16 -3 9 -6 -7 -3 -24 -2 -37 1 -34 9 -35 53 -2 59 39 8 72 7 85 -2z"/>
<path d="M1483 2333 c-70 -5 -72 -33 -4 -68 26 -13 31 -19 20 -26 -23 -14 -48
-10 -70 12 -11 11 -23 19 -25 16 -3 -3 16 -25 42 -51 37 -35 56 -46 80 -46 42
0 91 36 120 88 28 50 29 52 9 52 -8 0 -15 -7 -15 -15 0 -20 -58 -55 -92 -55
-37 0 -35 7 9 45 38 33 39 56 0 53 -12 -1 -46 -3 -74 -5z m89 -126 c-6 -7 -23
-14 -38 -15 -45 -3 -9 20 40 27 5 0 4 -5 -2 -12z"/>
<path d="M1633 2129 c-28 -29 -110 -37 -152 -16 -41 20 -40 12 2 -13 17 -11
45 -20 60 -20 37 0 89 25 105 50 16 26 12 25 -15 -1z"/>
<path d="M1745 1920 c3 -5 -3 -10 -14 -10 -12 0 -21 -7 -21 -15 0 -18 2 -18
35 -3 28 12 34 38 9 38 -8 0 -12 -4 -9 -10z"/>
<path d="M1668 1823 c12 -2 20 -8 17 -13 -3 -5 -12 -7 -20 -3 -10 3 -15 -1
-15 -12 0 -16 2 -16 24 -2 16 11 26 13 34 5 12 -12 35 -1 29 15 -2 6 -23 12
-48 13 -24 1 -34 -1 -21 -3z m62 -13 c0 -5 -4 -10 -10 -10 -5 0 -10 5 -10 10
0 6 5 10 10 10 6 0 10 -4 10 -10z"/>
<path d="M1770 1805 c0 -19 4 -23 17 -18 11 4 12 8 5 11 -19 6 -14 23 6 20 9
-2 19 -12 22 -22 5 -17 6 -17 16 5 11 23 10 24 -27 26 -35 1 -39 -1 -39 -22z"/>
<path d="M1990 1620 c6 -11 13 -20 16 -20 2 0 0 9 -6 20 -6 11 -13 20 -16 20
-2 0 0 -9 6 -20z"/>
<path d="M730 2025 c0 -8 5 -15 10 -15 6 0 10 7 10 15 0 8 -4 15 -10 15 -5 0
-10 -7 -10 -15z"/>
<path d="M900 2025 c0 -8 5 -15 10 -15 6 0 10 7 10 15 0 8 -4 15 -10 15 -5 0
-10 -7 -10 -15z"/>
<path d="M1000 1530 c0 -5 5 -10 11 -10 5 0 7 5 4 10 -3 6 -8 10 -11 10 -2 0
-4 -4 -4 -10z"/>
<path d="M874 1180 c-81 -32 -63 -160 22 -160 47 0 74 29 74 79 0 61 -47 101
-96 81z"/>
<path d="M1233 1180 c-28 -11 -43 -40 -43 -83 0 -83 121 -108 151 -30 10 28
-3 84 -24 101 -19 15 -60 21 -84 12z"/>
<path d="M4572 2320 c0 -14 2 -19 5 -12 2 6 2 18 0 25 -3 6 -5 1 -5 -13z"/>
<path d="M5875 1930 c-3 -5 3 -10 15 -10 12 0 18 5 15 10 -3 6 -10 10 -15 10
-5 0 -12 -4 -15 -10z"/>
<path d="M3062 1468 c-14 -14 -16 -35 -3 -42 5 -4 7 3 4 14 -7 25 21 37 45 19
15 -13 16 -12 3 4 -16 20 -32 22 -49 5z"/>
<path d="M3243 1415 c0 -38 2 -53 4 -32 2 20 2 52 0 70 -2 17 -4 1 -4 -38z"/>
<path d="M3940 1425 c0 -42 -4 -57 -16 -62 -9 -3 -20 0 -26 8 -8 12 -9 11 -5
-1 2 -8 16 -15 30 -16 27 -1 27 0 27 62 0 35 -2 64 -5 64 -3 0 -5 -25 -5 -55z"/>
<path d="M4113 1415 c0 -38 2 -53 4 -32 2 20 2 52 0 70 -2 17 -4 1 -4 -38z"/>
<path d="M4929 1458 c-3 -58 -1 -99 5 -105 3 -3 6 24 6 60 0 37 -2 67 -5 67
-3 0 -6 -10 -6 -22z"/>
<path d="M5101 1467 c-15 -19 -4 -45 22 -53 12 -4 28 -14 35 -23 12 -14 12
-14 4 2 -5 10 -20 24 -33 31 -13 6 -24 18 -24 26 0 19 35 26 47 8 8 -10 9 -10
5 2 -5 20 -41 24 -56 7z"/>
<path d="M5315 1450 c-4 -6 -3 -16 3 -22 13 -13 23 4 13 21 -7 10 -10 10 -16
1z"/>
<path d="M3152 1428 c-7 -7 -11 -21 -11 -32 1 -21 1 -21 6 -1 3 11 10 26 15
33 13 15 6 16 -10 0z"/>
<path d="M3196 1427 c3 -10 9 -15 12 -12 3 3 0 11 -7 18 -10 9 -11 8 -5 -6z"/>
<path d="M3282 1420 c0 -14 2 -19 5 -12 2 6 2 18 0 25 -3 6 -5 1 -5 -13z"/>
<path d="M3328 1399 c-2 -22 0 -43 4 -45 4 -3 8 15 8 40 0 57 -7 60 -12 5z"/>
<path d="M3374 1426 c-3 -8 -4 -27 -2 -43 3 -23 5 -20 9 15 5 43 2 53 -7 28z"/>
<path d="M3494 1415 c-4 -14 -4 -29 0 -32 3 -4 6 3 6 13 0 11 5 25 12 32 9 9
9 12 0 12 -6 0 -14 -11 -18 -25z"/>
<path d="M3640 1392 l5 -47 3 39 c2 21 0 42 -5 47 -4 4 -6 -13 -3 -39z"/>
<path d="M3727 1419 c4 -13 8 -18 11 -10 2 7 -1 18 -6 23 -8 8 -9 4 -5 -13z"/>
<path d="M3984 1426 c-3 -8 -4 -27 -2 -43 3 -23 5 -20 9 15 5 43 2 53 -7 28z"/>
<path d="M4150 1421 c0 -25 6 -27 13 -6 4 8 2 17 -3 20 -6 4 -10 -3 -10 -14z"/>
<path d="M4298 1400 c-2 -23 0 -46 4 -53 4 -7 8 12 8 41 0 62 -6 68 -12 12z"/>
<path d="M4387 1419 c4 -13 8 -18 11 -10 2 7 -1 18 -6 23 -8 8 -9 4 -5 -13z"/>
<path d="M4430 1425 c0 -8 2 -15 4 -15 2 0 6 7 10 15 3 8 1 15 -4 15 -6 0 -10
-7 -10 -15z"/>
<path d="M4467 1433 c6 -4 13 -26 16 -48 4 -40 4 -40 3 4 -1 30 -6 46 -16 48
-10 3 -11 2 -3 -4z"/>
<path d="M4523 1395 c0 -27 2 -38 4 -22 2 15 2 37 0 50 -2 12 -4 0 -4 -28z"/>
<path d="M4607 1419 c4 -13 8 -18 11 -10 2 7 -1 18 -6 23 -8 8 -9 4 -5 -13z"/>
<path d="M4652 1415 c0 -16 2 -22 5 -12 2 9 2 23 0 30 -3 6 -5 -1 -5 -18z"/>
<path d="M4788 1403 c5 -59 10 -63 11 -10 1 26 -3 47 -7 47 -4 0 -6 -17 -4
-37z"/>
<path d="M4874 1413 c-8 -28 4 -55 27 -60 8 -3 7 0 -3 7 -21 13 -24 50 -6 68
9 9 9 12 0 12 -6 0 -15 -12 -18 -27z"/>
<path d="M4964 1415 c-4 -14 -4 -29 0 -32 3 -4 6 3 6 13 0 11 5 25 12 32 9 9
9 12 0 12 -6 0 -14 -11 -18 -25z"/>
<path d="M5193 1395 c0 -27 2 -38 4 -22 2 15 2 37 0 50 -2 12 -4 0 -4 -28z"/>
<path d="M5230 1420 c0 -11 4 -20 8 -20 4 0 8 9 8 20 0 11 -4 20 -8 20 -4 0
-8 -9 -8 -20z"/>
<path d="M5265 1430 c3 -5 8 -10 11 -10 2 0 4 5 4 10 0 6 -5 10 -11 10 -5 0
-7 -4 -4 -10z"/>
<path d="M5412 1420 c7 -10 14 -18 15 -16 6 6 -9 36 -18 36 -5 0 -4 -9 3 -20z"/>
<path d="M5499 1427 c7 -7 14 -8 21 -1 6 6 2 10 -12 11 -16 2 -18 -1 -9 -10z"/>
<path d="M5548 1403 c5 -59 10 -63 11 -10 1 26 -3 47 -7 47 -4 0 -6 -17 -4
-37z"/>
<path d="M5640 1392 l5 -47 3 39 c2 21 0 42 -5 47 -4 4 -6 -13 -3 -39z"/>
<path d="M5684 1429 c-3 -6 -2 -15 3 -20 5 -5 9 -1 9 11 0 23 -2 24 -12 9z"/>
<path d="M5804 1426 c-15 -39 21 -95 46 -70 8 8 4 10 -12 10 -27 -1 -37 36
-18 60 9 10 9 14 1 14 -6 0 -14 -6 -17 -14z"/>
<path d="M5845 1430 c3 -5 8 -10 11 -10 2 0 4 5 4 10 0 6 -5 10 -11 10 -5 0
-7 -4 -4 -10z"/>
<path d="M5892 1428 c-7 -7 -11 -21 -11 -32 1 -21 1 -21 6 -1 3 11 10 26 15
33 13 15 6 16 -10 0z"/>
<path d="M5935 1402 c0 -32 -3 -37 -23 -36 -14 0 -19 -3 -13 -9 5 -5 18 -6 30
-2 16 5 21 15 21 40 0 19 -3 36 -7 38 -5 3 -8 -11 -8 -31z"/>
<path d="M5982 1391 c1 -41 2 -42 5 -11 3 19 9 40 14 46 5 7 3 11 -6 11 -11 0
-15 -12 -13 -46z"/>
<path d="M6030 1392 l5 -47 3 39 c2 21 0 42 -5 47 -4 4 -6 -13 -3 -39z"/>
<path d="M6110 1388 c0 -32 4 -48 9 -40 4 7 6 24 3 38 -2 13 1 31 8 39 10 12
9 15 -4 15 -13 0 -16 -11 -16 -52z"/>
<path d="M6204 1415 c-4 -14 -4 -29 0 -32 3 -4 6 3 6 13 0 11 5 25 12 32 9 9
9 12 0 12 -6 0 -14 -11 -18 -25z"/>
<path d="M6248 1432 c8 -5 12 -22 10 -38 -2 -23 -8 -29 -26 -28 -16 0 -20 -2
-12 -10 7 -7 16 -7 28 0 22 14 23 76 2 81 -12 4 -12 3 -2 -5z"/>
<path d="M6343 1380 c0 -36 2 -50 4 -32 2 17 2 47 0 65 -2 17 -4 3 -4 -33z"/>
<path d="M6386 1427 c3 -10 9 -15 12 -12 3 3 0 11 -7 18 -10 9 -11 8 -5 -6z"/>
<path d="M6427 1419 c4 -13 8 -18 11 -10 2 7 -1 18 -6 23 -8 8 -9 4 -5 -13z"/>
<path d="M6473 1425 c-3 -9 -3 -18 -1 -21 3 -3 8 4 11 16 6 23 -1 27 -10 5z"/>
<path d="M3455 1420 c3 -5 8 -10 11 -10 2 0 4 5 4 10 0 6 -5 10 -11 10 -5 0
-7 -4 -4 -10z"/>
<path d="M3093 1409 c9 -5 17 -17 17 -25 0 -20 -27 -29 -45 -14 -9 8 -15 8
-15 2 0 -14 33 -24 54 -16 21 8 21 50 0 58 -24 9 -31 7 -11 -5z"/>
<path d="M3549 1395 c-3 -23 -9 -30 -26 -29 -12 0 -20 -3 -17 -8 17 -27 58 8
52 44 -4 20 -5 19 -9 -7z"/>
<path d="M4213 1385 c0 -22 2 -30 4 -17 2 12 2 30 0 40 -3 9 -5 -1 -4 -23z"/>
<path d="M4701 1404 c0 -11 3 -14 6 -6 3 7 2 16 -1 19 -3 4 -6 -2 -5 -13z"/>
<path d="M5362 1400 c0 -14 2 -19 5 -12 2 6 2 18 0 25 -3 6 -5 1 -5 -13z"/>
<path d="M6171 1398 c0 -15 -9 -32 -18 -37 -10 -6 -13 -11 -7 -11 19 0 36 28
31 52 -4 21 -4 20 -6 -4z"/>
<path d="M4241 1402 c-1 -20 18 -52 32 -52 9 0 9 2 0 8 -7 4 -16 19 -22 32 -5
14 -10 19 -10 12z"/>
<path d="M4330 1399 c0 -5 5 -7 10 -4 6 3 10 8 10 11 0 2 -4 4 -10 4 -5 0 -10
-5 -10 -11z"/>
<path d="M4551 1394 c0 -11 3 -14 6 -6 3 7 2 16 -1 19 -3 4 -6 -2 -5 -13z"/>
<path d="M5320 1386 c0 -14 4 -27 8 -30 5 -3 6 8 4 25 -5 35 -12 38 -12 5z"/>
<path d="M3592 1375 c0 -16 2 -22 5 -12 2 9 2 23 0 30 -3 6 -5 -1 -5 -18z"/>
<path d="M3800 1393 c15 -7 12 -31 -5 -36 -11 -4 -10 -4 2 -3 21 2 25 38 5 42
-7 1 -8 0 -2 -3z"/>
<path d="M5269 1387 c11 -14 11 -18 -2 -23 -9 -3 -22 -2 -29 2 -11 6 -11 4 0
-7 9 -10 17 -11 30 -3 21 14 22 36 2 42 -13 5 -13 3 -1 -11z"/>
<path d="M5594 1385 c-8 -19 4 -35 24 -34 14 1 14 2 -1 6 -13 3 -17 11 -14 24
6 22 -1 26 -9 4z"/>
<path d="M5722 1380 c14 -22 24 -19 15 5 -4 8 -11 15 -17 15 -6 0 -6 -7 2 -20z"/>
<path d="M3196 1373 c-6 -14 -5 -15 5 -6 7 7 10 15 7 18 -3 3 -9 -2 -12 -12z"/>
<path d="M4151 1374 c0 -11 3 -14 6 -6 3 7 2 16 -1 19 -3 4 -6 -2 -5 -13z"/>
<path d="M4744 1370 c1 -8 10 -16 21 -17 15 -1 15 0 3 3 -9 3 -19 11 -21 17
-2 7 -3 5 -3 -3z"/>
<path d="M6441 1385 c0 -5 4 -19 8 -29 7 -19 8 -19 13 2 4 12 2 20 -2 17 -5
-3 -11 1 -13 7 -3 7 -5 9 -6 3z"/>
<path d="M4343 1370 c2 -8 12 -16 23 -17 13 -2 15 -1 4 4 -8 3 -19 11 -23 17
-6 7 -7 6 -4 -4z"/>
<path d="M5099 1368 c14 -19 46 -24 55 -9 4 5 -3 7 -14 4 -11 -3 -28 1 -38 8
-15 13 -16 12 -3 -3z"/>
<path d="M6376 1364 c-17 -12 -17 -14 -4 -14 9 0 20 5 23 11 11 17 2 18 -19 3z"/>
<path d="M3287 1359 c7 -7 15 -10 18 -7 3 3 -2 9 -12 12 -14 6 -15 5 -6 -5z"/>
<path d="M4568 1358 c5 -5 16 -8 23 -6 8 3 3 7 -10 11 -17 4 -21 3 -13 -5z"/>
<path d="M4977 1358 c2 -5 10 -8 18 -8 8 0 16 3 18 8 3 4 -5 7 -18 7 -13 0
-21 -3 -18 -7z"/>
<path d="M5377 1358 c2 -5 10 -8 18 -8 8 0 16 3 18 8 3 4 -5 7 -18 7 -13 0
-21 -3 -18 -7z"/>
<path d="M5688 1358 c5 -5 16 -8 23 -6 8 3 3 7 -10 11 -17 4 -21 3 -13 -5z"/>
<path d="M5362 983 c-2 -73 -4 -83 -21 -83 -12 0 -22 11 -29 33 l-10 32 -1
-32 c-1 -22 -6 -33 -16 -33 -12 0 -15 16 -17 78 l-2 77 -3 -73 c-4 -66 -6 -74
-28 -84 -20 -9 -28 -8 -44 6 -16 15 -19 15 -31 1 -21 -25 -53 -14 -72 25 -10
19 -18 31 -18 25 0 -5 -5 -3 -10 5 -7 12 -10 12 -10 1 0 -7 -6 -11 -15 -7 -8
3 -15 1 -15 -4 0 -6 -9 -6 -25 0 -23 9 -25 7 -25 -16 0 -15 15 -41 39 -67 l40
-42 670 0 c665 0 670 0 698 21 31 23 69 81 59 91 -3 3 -26 6 -52 5 -36 0 -44
3 -40 14 3 8 2 13 -3 9 -5 -3 -12 1 -15 7 -3 7 -3 -6 0 -29 5 -35 3 -43 -10
-43 -9 0 -19 7 -22 15 -4 8 -10 15 -15 15 -5 0 -9 -7 -9 -15 0 -10 -11 -15
-35 -15 -32 0 -35 2 -35 30 0 17 -4 30 -10 30 -5 0 -10 -13 -10 -30 0 -20 -5
-30 -15 -30 -12 0 -15 15 -17 68 l-2 67 -3 -62 c-3 -50 -8 -65 -24 -73 -23
-13 -59 -4 -59 13 0 7 -5 4 -11 -5 -15 -27 -39 -10 -39 28 0 19 -4 34 -10 34
-5 0 -10 -16 -10 -35 0 -24 -5 -35 -15 -35 -12 0 -15 14 -15 68 0 55 -3 69
-15 69 -11 0 -14 -6 -9 -16 4 -9 9 -40 12 -68 4 -43 2 -53 -11 -53 -8 0 -18 8
-22 18 -6 16 -7 16 -19 0 -19 -26 -34 -22 -38 9 -2 14 -10 28 -18 30 -13 4
-13 3 0 -6 11 -8 11 -11 2 -11 -7 0 -15 6 -18 13 -8 21 -44 18 -44 -4 0 -13 7
-19 21 -19 13 0 19 -5 17 -16 -2 -8 -6 -15 -10 -15 -5 1 -21 1 -38 1 l-30 0 0
65 c0 80 -16 87 -19 8 -2 -56 -15 -88 -32 -77 -5 3 -9 35 -9 70 0 48 -3 65
-12 62 -7 -3 -14 -15 -15 -29 -2 -22 -2 -23 7 -4 8 16 9 13 5 -14 -3 -18 -5
-44 -5 -57 0 -15 -6 -24 -15 -24 -8 0 -15 7 -15 15 0 8 -4 15 -9 15 -5 0 -11
-7 -15 -15 -3 -8 -13 -15 -22 -15 -13 0 -15 7 -10 34 4 20 2 37 -4 41 -6 4
-10 -9 -10 -34 0 -34 -3 -41 -19 -41 -14 0 -21 8 -23 28 l-4 27 -11 -27 c-14
-30 -44 -43 -70 -30 -10 5 -27 6 -37 2 -11 -3 -30 -5 -42 -2 -22 4 -23 10 -27
86 l-3 81 -2 -82z"/>
<path d="M6037 1043 c-11 -10 -8 -43 3 -43 6 0 10 11 10 25 0 26 -2 29 -13 18z"/>
<path d="M5610 1030 c-12 -7 -12 -12 -3 -21 10 -10 14 -9 19 5 8 22 2 27 -16
16z"/>
<path d="M5120 980 c0 -27 5 -50 10 -50 6 0 10 9 10 21 0 15 5 19 15 15 10 -4
15 1 15 14 0 11 -7 20 -15 20 -8 0 -15 7 -15 15 0 8 -4 15 -10 15 -5 0 -10
-22 -10 -50z"/>
<path d="M5210 979 c0 -31 4 -48 10 -44 6 3 10 26 10 51 0 24 -4 44 -10 44 -5
0 -10 -23 -10 -51z"/>
<path d="M5400 1015 c0 -8 5 -15 10 -15 6 0 10 6 10 13 0 8 4 7 10 -3 16 -24
12 -40 -10 -40 -13 0 -20 -7 -20 -19 0 -14 7 -19 25 -17 23 1 25 5 25 49 0 44
-2 47 -25 47 -16 0 -25 -6 -25 -15z"/>
<path d="M5492 985 c0 -27 2 -42 5 -32 2 9 10 17 17 17 13 0 46 35 46 50 0 6
-4 10 -10 10 -5 0 -10 -7 -10 -15 0 -21 -38 -19 -43 3 -3 9 -5 -5 -5 -33z"/>
<path d="M5820 1013 c0 -14 2 -15 9 -4 5 7 14 10 20 7 6 -4 11 -2 11 3 0 6 -9
11 -20 11 -12 0 -20 -7 -20 -17z"/>
<path d="M6133 980 c0 -30 2 -43 4 -27 2 15 2 39 0 55 -2 15 -4 2 -4 -28z"/>
<path d="M6220 1015 c0 -8 5 -15 10 -15 6 0 10 7 10 15 0 8 -4 15 -10 15 -5 0
-10 -7 -10 -15z"/>
<path d="M5941 974 c0 -11 3 -14 6 -6 3 7 2 16 -1 19 -3 4 -6 -2 -5 -13z"/>
<path d="M6270 956 c0 -20 2 -36 4 -36 8 0 12 61 4 66 -4 3 -8 -11 -8 -30z"/>
</g>
</svg>
